<svg width="1440" height="1024" viewBox="0 0 1440 1024" xmlns="http://www.w3.org/2000/svg">

<defs>
  <style>
    .bg { fill: #f8fafc; }
    .sidebar { fill: #111827; }
    .panel { fill: #ffffff; stroke: #e5e7eb; stroke-width: 1.5; }
    .soft { fill: #f9fafb; stroke: #e5e7eb; stroke-width: 1.5; }
    .green { fill: #10b981; }
    .green-soft { fill: #ecfdf5; stroke: #a7f3d0; stroke-width: 1.5; }
    .purple-soft { fill: #f5f3ff; stroke: #ddd6fe; stroke-width: 1.5; }
    .red-soft { fill: #fef2f2; stroke: #fecaca; stroke-width: 1.5; }
    .yellow-soft { fill: #fffbeb; stroke: #fde68a; stroke-width: 1.5; }
    .text { font-family: Inter, Arial, sans-serif; fill: #111827; }
    .muted { font-family: Inter, Arial, sans-serif; fill: #6b7280; }
    .white { font-family: Inter, Arial, sans-serif; fill: #ffffff; }
    .small { font-size: 18px; }
    .body { font-size: 22px; }
    .title { font-size: 42px; font-weight: 800; }
    .h2 { font-size: 28px; font-weight: 750; }
    .h3 { font-size: 22px; font-weight: 750; }
    .label { font-size: 15px; font-weight: 800; letter-spacing: 2px; }
    .badge { font-size: 17px; font-weight: 800; }
  </style>
</defs>

<rect x="0" y="0" width="1440" height="1024" rx="0" class="bg"/>
<rect x="0" y="0" width="300" height="1024" rx="0" class="sidebar"/>
<rect x="38" y="48" width="62" height="62" rx="16" class="green"/>
<text x="69" y="88" class="white h3" text-anchor="middle">FI</text>
<text x="122" y="73" class="white h3" text-anchor="start">FoodIntel AI</text>
<text x="122" y="103" class="white small" text-anchor="start">Sales intelligence OS</text>
<rect x="38" y="148" width="224" height="112" rx="16" class="purple-soft"/>
<text x="58" y="184" class="muted label" text-anchor="start">LOGGED-IN CATEGORY</text>
<text x="58" y="218" class="text h3" text-anchor="start">Packaging</text>
<text x="58" y="244" class="muted small" text-anchor="start">FreshPack Solutions</text>
<text x="38" y="315" class="muted label" text-anchor="start">AREA</text>
<rect x="38" y="334" width="224" height="52" rx="12" class="soft"/>
<text x="58" y="368" class="text small" text-anchor="start">A.S. Rao Nagar</text>
<text x="38" y="435" class="muted label" text-anchor="start">ACTIVE PROSPECT</text>
<rect x="38" y="454" width="224" height="52" rx="12" class="soft"/>
<text x="58" y="488" class="text small" text-anchor="start">Hapyningz Cafe</text>
<rect x="38" y="555" width="224" height="48" rx="12" class="sidebar"/>
<text x="62" y="586" class="white small" text-anchor="start">Command Center</text>
<rect x="38" y="617" width="224" height="48" rx="12" class="sidebar"/>
<text x="62" y="648" class="white small" text-anchor="start">Prospect Brief</text>
<rect x="38" y="679" width="224" height="48" rx="12" class="sidebar"/>
<text x="62" y="710" class="white small" text-anchor="start">Opportunity Radar</text>
<rect x="38" y="741" width="224" height="48" rx="12" class="sidebar"/>
<text x="62" y="772" class="white small" text-anchor="start">CRM Timeline</text>
<rect x="38" y="803" width="224" height="48" rx="12" class="green-soft"/>
<text x="62" y="834" class="text small" text-anchor="start">Follow-up Studio</text>
<rect x="38" y="865" width="224" height="48" rx="12" class="sidebar"/>
<text x="62" y="896" class="white small" text-anchor="start">AI Copilot</text>
<rect x="340" y="42" width="198" height="94" rx="16" class="panel"/>
<text x="362" y="78" class="muted label" text-anchor="start">SELLER</text>
<text x="362" y="112" class="text small" text-anchor="start">FreshPack Solutions</text>
<rect x="554" y="42" width="198" height="94" rx="16" class="panel"/>
<text x="576" y="78" class="muted label" text-anchor="start">CATEGORY</text>
<text x="576" y="112" class="text small" text-anchor="start">Packaging</text>
<rect x="768" y="42" width="198" height="94" rx="16" class="panel"/>
<text x="790" y="78" class="muted label" text-anchor="start">PROSPECT</text>
<text x="790" y="112" class="text small" text-anchor="start">Hapyningz Cafe</text>
<rect x="982" y="42" width="198" height="94" rx="16" class="panel"/>
<text x="1004" y="78" class="muted label" text-anchor="start">MEETING</text>
<text x="1004" y="112" class="text small" text-anchor="start">Today 3:00 PM</text>
<rect x="1196" y="42" width="198" height="94" rx="16" class="panel"/>
<text x="1218" y="78" class="muted label" text-anchor="start">PRODUCT FOCUS</text>
<text x="1218" y="112" class="text small" text-anchor="start">Leak-proof packaging</text>
<text x="340" y="210" class="text title" text-anchor="start">Follow-up Studio</text>
<text x="340" y="250" class="muted body" text-anchor="start">Post-meeting execution: email, CRM update and next actions.</text>
<rect x="340" y="315" width="650" height="540" rx="20" class="panel"/>
<text x="375" y="365" class="text h2" text-anchor="start">Follow-up email draft</text>
<text x="375" y="430" class="text small" text-anchor="start">Hi,</text>
<text x="375" y="480" class="muted small" text-anchor="start">Thank you for discussing leak-proof packaging needs for Hapyningz Cafe.</text>
<text x="375" y="525" class="muted small" text-anchor="start">I suggest a small pilot using leak-proof containers and biryani boxes.</text>
<text x="375" y="570" class="muted small" text-anchor="start">This lets your team compare quality, reliability and commercial fit.</text>
<text x="375" y="650" class="text small" text-anchor="start">Best,</text>
<text x="375" y="690" class="text small" text-anchor="start">FoodIntel Sales Team</text>
<rect x="1030" y="315" width="330" height="540" rx="20" class="panel"/>
<text x="1060" y="365" class="text h2" text-anchor="start">CRM update</text>
<text x="1060" y="420" class="text h3" text-anchor="start">Next actions</text>
<text x="1060" y="470" class="muted small" text-anchor="start">Send pilot proposal</text>
<text x="1060" y="515" class="muted small" text-anchor="start">Confirm decision maker</text>
<text x="1060" y="560" class="muted small" text-anchor="start">Schedule sample review</text>
</svg>